<svg xmlns="http://www.w3.org/2000/svg" width="900" height="380" viewBox="0 0 900 380" font-family="system-ui,sans-serif">
<rect width="900" height="380" fill="white"/>
<text x="48" y="24" font-size="16" font-weight="600" fill="#111">World Cup win/draw/loss hit rate by edition — walk-forward Elo + Poisson (964 matches)</text>
<line x1="48" x2="729" y1="240.1" y2="240.1" stroke="#999" stroke-dasharray="4 4" stroke-width="1"/>
  <text x="733" y="244.1" font-size="11" text-anchor="start" fill="#999">random 33.3%</text><line x1="48" x2="729" y1="205.7" y2="205.7" stroke="#999" stroke-dasharray="4 4" stroke-width="1"/>
  <text x="733" y="209.7" font-size="11" text-anchor="start" fill="#999">always-favourite ~45%</text><line x1="48" x2="729" y1="171.6" y2="171.6" stroke="#c0392b"  stroke-width="1"/>
  <text x="733" y="175.6" font-size="11" text-anchor="start" fill="#c0392b">overall 56.6%</text><rect x="50.0" y="108.7" width="26.8" height="229.3" fill="#2f9e63" rx="2"/><text x="63.4" y="103.7" font-size="11" text-anchor="middle" fill="#333">78</text><text x="63.4" y="354" font-size="10" text-anchor="middle" fill="#555" transform="rotate(0)">30</text><rect x="80.8" y="129.3" width="26.8" height="208.7" fill="#2f9e63" rx="2"/><text x="94.2" y="124.3" font-size="11" text-anchor="middle" fill="#333">71</text><text x="94.2" y="354" font-size="10" text-anchor="middle" fill="#555" transform="rotate(0)">34</text><rect x="111.5" y="141.0" width="26.8" height="197.0" fill="#2f9e63" rx="2"/><text x="124.9" y="136.0" font-size="11" text-anchor="middle" fill="#333">67</text><text x="124.9" y="354" font-size="10" text-anchor="middle" fill="#555" transform="rotate(0)">38</text><rect x="142.3" y="191.0" width="26.8" height="147.0" fill="#2f9e63" rx="2"/><text x="155.7" y="186.0" font-size="11" text-anchor="middle" fill="#333">50</text><text x="155.7" y="354" font-size="10" text-anchor="middle" fill="#555" transform="rotate(0)">50</text><rect x="173.1" y="123.4" width="26.8" height="214.6" fill="#2f9e63" rx="2"/><text x="186.5" y="118.4" font-size="11" text-anchor="middle" fill="#333">73</text><text x="186.5" y="354" font-size="10" text-anchor="middle" fill="#555" transform="rotate(0)">54</text><rect x="203.9" y="211.6" width="26.8" height="126.4" fill="#2f9e63" rx="2"/><text x="217.3" y="206.6" font-size="11" text-anchor="middle" fill="#333">43</text><text x="217.3" y="354" font-size="10" text-anchor="middle" fill="#555" transform="rotate(0)">58</text><rect x="234.6" y="152.8" width="26.8" height="185.2" fill="#2f9e63" rx="2"/><text x="248.0" y="147.8" font-size="11" text-anchor="middle" fill="#333">63</text><text x="248.0" y="354" font-size="10" text-anchor="middle" fill="#555" transform="rotate(0)">62</text><rect x="265.4" y="144.0" width="26.8" height="194.0" fill="#2f9e63" rx="2"/><text x="278.8" y="139.0" font-size="11" text-anchor="middle" fill="#333">66</text><text x="278.8" y="354" font-size="10" text-anchor="middle" fill="#555" transform="rotate(0)">66</text><rect x="296.2" y="152.8" width="26.8" height="185.2" fill="#2f9e63" rx="2"/><text x="309.6" y="147.8" font-size="11" text-anchor="middle" fill="#333">63</text><text x="309.6" y="354" font-size="10" text-anchor="middle" fill="#555" transform="rotate(0)">70</text><rect x="327.0" y="182.2" width="26.8" height="155.8" fill="#2f9e63" rx="2"/><text x="340.3" y="177.2" font-size="11" text-anchor="middle" fill="#333">53</text><text x="340.3" y="354" font-size="10" text-anchor="middle" fill="#555" transform="rotate(0)">74</text><rect x="357.7" y="182.2" width="26.8" height="155.8" fill="#2f9e63" rx="2"/><text x="371.1" y="177.2" font-size="11" text-anchor="middle" fill="#333">53</text><text x="371.1" y="354" font-size="10" text-anchor="middle" fill="#555" transform="rotate(0)">78</text><rect x="388.5" y="191.0" width="26.8" height="147.0" fill="#2f9e63" rx="2"/><text x="401.9" y="186.0" font-size="11" text-anchor="middle" fill="#333">50</text><text x="401.9" y="354" font-size="10" text-anchor="middle" fill="#555" transform="rotate(0)">82</text><rect x="419.3" y="161.6" width="26.8" height="176.4" fill="#2f9e63" rx="2"/><text x="432.7" y="156.6" font-size="11" text-anchor="middle" fill="#333">60</text><text x="432.7" y="354" font-size="10" text-anchor="middle" fill="#555" transform="rotate(0)">86</text><rect x="450.0" y="185.1" width="26.8" height="152.9" fill="#2f9e63" rx="2"/><text x="463.4" y="180.1" font-size="11" text-anchor="middle" fill="#333">52</text><text x="463.4" y="354" font-size="10" text-anchor="middle" fill="#555" transform="rotate(0)">90</text><rect x="480.8" y="179.2" width="26.8" height="158.8" fill="#2f9e63" rx="2"/><text x="494.2" y="174.2" font-size="11" text-anchor="middle" fill="#333">54</text><text x="494.2" y="354" font-size="10" text-anchor="middle" fill="#555" transform="rotate(0)">94</text><rect x="511.6" y="176.3" width="26.8" height="161.7" fill="#2f9e63" rx="2"/><text x="525.0" y="171.3" font-size="11" text-anchor="middle" fill="#333">55</text><text x="525.0" y="354" font-size="10" text-anchor="middle" fill="#555" transform="rotate(0)">98</text><rect x="542.4" y="191.0" width="26.8" height="147.0" fill="#2f9e63" rx="2"/><text x="555.8" y="186.0" font-size="11" text-anchor="middle" fill="#333">50</text><text x="555.8" y="354" font-size="10" text-anchor="middle" fill="#555" transform="rotate(0)">02</text><rect x="573.1" y="149.8" width="26.8" height="188.2" fill="#2f9e63" rx="2"/><text x="586.5" y="144.8" font-size="11" text-anchor="middle" fill="#333">64</text><text x="586.5" y="354" font-size="10" text-anchor="middle" fill="#555" transform="rotate(0)">06</text><rect x="603.9" y="185.1" width="26.8" height="152.9" fill="#2f9e63" rx="2"/><text x="617.3" y="180.1" font-size="11" text-anchor="middle" fill="#333">52</text><text x="617.3" y="354" font-size="10" text-anchor="middle" fill="#555" transform="rotate(0)">10</text><rect x="634.7" y="164.5" width="26.8" height="173.5" fill="#2f9e63" rx="2"/><text x="648.1" y="159.5" font-size="11" text-anchor="middle" fill="#333">59</text><text x="648.1" y="354" font-size="10" text-anchor="middle" fill="#555" transform="rotate(0)">14</text><rect x="665.5" y="173.4" width="26.8" height="164.6" fill="#2f9e63" rx="2"/><text x="678.8" y="168.4" font-size="11" text-anchor="middle" fill="#333">56</text><text x="678.8" y="354" font-size="10" text-anchor="middle" fill="#555" transform="rotate(0)">18</text><rect x="696.2" y="176.3" width="26.8" height="161.7" fill="#2f9e63" rx="2"/><text x="709.6" y="171.3" font-size="11" text-anchor="middle" fill="#333">55</text><text x="709.6" y="354" font-size="10" text-anchor="middle" fill="#555" transform="rotate(0)">22</text>
<text x="48" y="372" font-size="10" fill="#888">Data: martj42/international_results (CC0) · Model &amp; backtest: footytips.io</text>
</svg>