<svg xmlns="http://www.w3.org/2000/svg" width="900" height="380" viewBox="0 0 900 380" font-family="system-ui,sans-serif">
<rect width="900" height="380" fill="white"/>
<text x="48" y="24" font-size="16" font-weight="600" fill="#111">World Cup win/draw/loss hit rate by edition — walk-forward Elo + Poisson (964 matches)</text>
<line x1="48" x2="884" y1="240.1" y2="240.1" stroke="#999" stroke-dasharray="4 4" stroke-width="1"/>
  <text x="884" y="236.1" font-size="11" text-anchor="end" fill="#999">random 33.3%</text><line x1="48" x2="884" y1="205.7" y2="205.7" stroke="#999" stroke-dasharray="4 4" stroke-width="1"/>
  <text x="884" y="201.7" font-size="11" text-anchor="end" fill="#999">always-favourite ~45%</text><line x1="48" x2="884" y1="171.6" y2="171.6" stroke="#c0392b"  stroke-width="1"/>
  <text x="884" y="167.6" font-size="11" text-anchor="end" fill="#c0392b">overall 56.6%</text><rect x="50.0" y="108.7" width="34.0" height="229.3" fill="#2f9e63" rx="2"/><text x="67.0" y="103.7" font-size="11" text-anchor="middle" fill="#333">78</text><text x="67.0" y="354" font-size="10" text-anchor="middle" fill="#555" transform="rotate(0)">30</text><rect x="88.0" y="129.3" width="34.0" height="208.7" fill="#2f9e63" rx="2"/><text x="105.0" y="124.3" font-size="11" text-anchor="middle" fill="#333">71</text><text x="105.0" y="354" font-size="10" text-anchor="middle" fill="#555" transform="rotate(0)">34</text><rect x="126.0" y="141.0" width="34.0" height="197.0" fill="#2f9e63" rx="2"/><text x="143.0" y="136.0" font-size="11" text-anchor="middle" fill="#333">67</text><text x="143.0" y="354" font-size="10" text-anchor="middle" fill="#555" transform="rotate(0)">38</text><rect x="164.0" y="191.0" width="34.0" height="147.0" fill="#2f9e63" rx="2"/><text x="181.0" y="186.0" font-size="11" text-anchor="middle" fill="#333">50</text><text x="181.0" y="354" font-size="10" text-anchor="middle" fill="#555" transform="rotate(0)">50</text><rect x="202.0" y="123.4" width="34.0" height="214.6" fill="#2f9e63" rx="2"/><text x="219.0" y="118.4" font-size="11" text-anchor="middle" fill="#333">73</text><text x="219.0" y="354" font-size="10" text-anchor="middle" fill="#555" transform="rotate(0)">54</text><rect x="240.0" y="211.6" width="34.0" height="126.4" fill="#2f9e63" rx="2"/><text x="257.0" y="206.6" font-size="11" text-anchor="middle" fill="#333">43</text><text x="257.0" y="354" font-size="10" text-anchor="middle" fill="#555" transform="rotate(0)">58</text><rect x="278.0" y="152.8" width="34.0" height="185.2" fill="#2f9e63" rx="2"/><text x="295.0" y="147.8" font-size="11" text-anchor="middle" fill="#333">63</text><text x="295.0" y="354" font-size="10" text-anchor="middle" fill="#555" transform="rotate(0)">62</text><rect x="316.0" y="144.0" width="34.0" height="194.0" fill="#2f9e63" rx="2"/><text x="333.0" y="139.0" font-size="11" text-anchor="middle" fill="#333">66</text><text x="333.0" y="354" font-size="10" text-anchor="middle" fill="#555" transform="rotate(0)">66</text><rect x="354.0" y="152.8" width="34.0" height="185.2" fill="#2f9e63" rx="2"/><text x="371.0" y="147.8" font-size="11" text-anchor="middle" fill="#333">63</text><text x="371.0" y="354" font-size="10" text-anchor="middle" fill="#555" transform="rotate(0)">70</text><rect x="392.0" y="182.2" width="34.0" height="155.8" fill="#2f9e63" rx="2"/><text x="409.0" y="177.2" font-size="11" text-anchor="middle" fill="#333">53</text><text x="409.0" y="354" font-size="10" text-anchor="middle" fill="#555" transform="rotate(0)">74</text><rect x="430.0" y="182.2" width="34.0" height="155.8" fill="#2f9e63" rx="2"/><text x="447.0" y="177.2" font-size="11" text-anchor="middle" fill="#333">53</text><text x="447.0" y="354" font-size="10" text-anchor="middle" fill="#555" transform="rotate(0)">78</text><rect x="468.0" y="191.0" width="34.0" height="147.0" fill="#2f9e63" rx="2"/><text x="485.0" y="186.0" font-size="11" text-anchor="middle" fill="#333">50</text><text x="485.0" y="354" font-size="10" text-anchor="middle" fill="#555" transform="rotate(0)">82</text><rect x="506.0" y="161.6" width="34.0" height="176.4" fill="#2f9e63" rx="2"/><text x="523.0" y="156.6" font-size="11" text-anchor="middle" fill="#333">60</text><text x="523.0" y="354" font-size="10" text-anchor="middle" fill="#555" transform="rotate(0)">86</text><rect x="544.0" y="185.1" width="34.0" height="152.9" fill="#2f9e63" rx="2"/><text x="561.0" y="180.1" font-size="11" text-anchor="middle" fill="#333">52</text><text x="561.0" y="354" font-size="10" text-anchor="middle" fill="#555" transform="rotate(0)">90</text><rect x="582.0" y="179.2" width="34.0" height="158.8" fill="#2f9e63" rx="2"/><text x="599.0" y="174.2" font-size="11" text-anchor="middle" fill="#333">54</text><text x="599.0" y="354" font-size="10" text-anchor="middle" fill="#555" transform="rotate(0)">94</text><rect x="620.0" y="176.3" width="34.0" height="161.7" fill="#2f9e63" rx="2"/><text x="637.0" y="171.3" font-size="11" text-anchor="middle" fill="#333">55</text><text x="637.0" y="354" font-size="10" text-anchor="middle" fill="#555" transform="rotate(0)">98</text><rect x="658.0" y="191.0" width="34.0" height="147.0" fill="#2f9e63" rx="2"/><text x="675.0" y="186.0" font-size="11" text-anchor="middle" fill="#333">50</text><text x="675.0" y="354" font-size="10" text-anchor="middle" fill="#555" transform="rotate(0)">02</text><rect x="696.0" y="149.8" width="34.0" height="188.2" fill="#2f9e63" rx="2"/><text x="713.0" y="144.8" font-size="11" text-anchor="middle" fill="#333">64</text><text x="713.0" y="354" font-size="10" text-anchor="middle" fill="#555" transform="rotate(0)">06</text><rect x="734.0" y="185.1" width="34.0" height="152.9" fill="#2f9e63" rx="2"/><text x="751.0" y="180.1" font-size="11" text-anchor="middle" fill="#333">52</text><text x="751.0" y="354" font-size="10" text-anchor="middle" fill="#555" transform="rotate(0)">10</text><rect x="772.0" y="164.5" width="34.0" height="173.5" fill="#2f9e63" rx="2"/><text x="789.0" y="159.5" font-size="11" text-anchor="middle" fill="#333">59</text><text x="789.0" y="354" font-size="10" text-anchor="middle" fill="#555" transform="rotate(0)">14</text><rect x="810.0" y="173.4" width="34.0" height="164.6" fill="#2f9e63" rx="2"/><text x="827.0" y="168.4" font-size="11" text-anchor="middle" fill="#333">56</text><text x="827.0" y="354" font-size="10" text-anchor="middle" fill="#555" transform="rotate(0)">18</text><rect x="848.0" y="176.3" width="34.0" height="161.7" fill="#2f9e63" rx="2"/><text x="865.0" y="171.3" font-size="11" text-anchor="middle" fill="#333">55</text><text x="865.0" y="354" font-size="10" text-anchor="middle" fill="#555" transform="rotate(0)">22</text>
<text x="48" y="372" font-size="10" fill="#888">Data: martj42/international_results (CC0) · Model &amp; backtest: footytips.io</text>
</svg>